# xmcd
#
# Track frame offsets: 
#        150
#        15576
#        28301
#        42467
#        54894
#        71823
#        90561
#        106818
#        118038
#        130538
#        145675
#        158532
#        168873
#        183847
#        195399
#        209017
#        223707
#        238719
#        252382
#        267179
#        283960
#        296249
#        305510
#        325837
#
# Disc length: 4494 seconds
#
# Revision: 0
# Processed by: cddbd v1.5.2PL0 Copyright (c) Steve Scherf et al.
# Submitted via: ExactAudioCopyFreeDBPlugin 1.0
#
DISCID=62118c18
DTITLE=Various Artist - Not So Dusty II
DYEAR=2012
DGENRE=Country
TTITLE0=Trevor Adamson - When the Rain Tumbles Down in July
TTITLE1=Tom Maxwell - Saddle is His Home
TTITLE2=The Flying Emus - Since the Bushland Boogie Came This Way
TTITLE3=Dean Perrett and Dianne Lindsay - There's a Rainbow Around My Me
TTITLE3=mories
TTITLE4=Amos Morris - Grandfather Johnson
TTITLE5=Jeff Brown - Send 'Er Down Hughie
TTITLE6=Davidson Brothers - Lights on the Hill
TTITLE7=Lynne Carey (feat. Rick Carey and Anne Kirkpatrick) - Rusty It's
TTITLE7=Goodbye
TTITLE8=Peter Denahy - Happy Jack
TTITLE9=Norma O'Hara Murphy - Leave Him in the Longyard
TTITLE10=Stan Coster - Fair Enough
TTITLE11=Tracey Coster and Anne Kirkpatrick - Back to the Saltbush Plain
TTITLE11=s
TTITLE12=Roger Knox - King Bundawaal
TTITLE13=Le Garde Twins - Been a Fool Too Long
TTITLE14=Jim Haynes - Casey's Luck
TTITLE15=Nathan Charlton - Lace Up Shoes
TTITLE16=Dean Perrett - Axe Mark on a Gidgee
TTITLE17=Peter Coad and The Coad Sisters - The Showman's Song
TTITLE18=Reg Poole - A Song for Granny 
TTITLE19=Daly Stephenson - Namatjira
TTITLE20=Keith Jamieson - Ghosts of the Golden Mile
TTITLE21=Charley Boyte - Shearing Shed Blues
TTITLE22=Merv Webster - I Never Cried for Elvis but I Shed a Tear for 
TTITLE22=Slim
TTITLE23=Brade - When the Rain Tumbles Down in July
EXTD=
EXTT0=
EXTT1=
EXTT2=
EXTT3=
EXTT4=
EXTT5=
EXTT6=
EXTT7=
EXTT8=
EXTT9=
EXTT10=
EXTT11=
EXTT12=
EXTT13=
EXTT14=
EXTT15=
EXTT16=
EXTT17=
EXTT18=
EXTT19=
EXTT20=
EXTT21=
EXTT22=
EXTT23=
PLAYORDER=
